name Run_300 02_newCOP3_v24.mot
datacolumns 19
datarows 60
range 1.435 1.494
DataType=double
version=3
OpenSimVersion=4.3-2021-08-27-4bc7ad9
endheader
time	R_ground_force_vx	R_ground_force_vy	R_ground_force_vz	R_ground_force_px	R_ground_force_py	R_ground_force_pz	L_ground_force_vx	L_ground_force_vy	L_ground_force_vz	L_ground_force_px	L_ground_force_py	L_ground_force_pz	R_ground_torque_x	R_ground_torque_y	R_ground_torque_z	L_ground_torque_x	L_ground_torque_y	L_ground_torque_z
1.435	0	0	0	0	0	0	0	0	0	0	0	0	0	0	0	0	0	0
1.436	0	0	0	0	0	0	0	0	0	0	0	0	0	0	0	0	0	0
1.437	0	0	0	0	0	0	0	0	0	0	0	0	0	0	0	0	0	0
1.438	0	0	0	0	0	0	0	0	0	0	0	0	0	0	0	0	0	0
1.439	0	0	0	0	0	0	0	0	0	0	0	0	0	0	0	0	0	0
1.44	0	0	0	0	0	0	0	0	0	0	0	0	0	0	0	0	0	0
1.441	0	0	0	0	0	0	0	0	0	0	0	0	0	0	0	0	0	0
1.442	0	0	0	0	0	0	0	0	0	0	0	0	0	0	0	0	0	0
1.443	0	0	0	0	0	0	0	0	0	0	0	0	0	0	0	0	0	0
1.444	0	0	0	0	0	0	0	0	0	0	0	0	0	0	0	0	0	0
1.445	0	0	0	0	0	0	0	0	0	0	0	0	0	0	0	0	0	0
1.446	0	0	0	0	0	0	0	0	0	0	0	0	0	0	0	0	0	0
1.447	0	0	0	0	0	0	0	0	0	0	0	0	0	0	0	0	0	0
1.448	0	0	0	0	0	0	-8.777502999999999	54.802292	-3.500696	1.112604	0	-0.279475	0	0	0	-0	0.562434	-0
1.449	0	0	0	0	0	0	-8.90094	60.955185	-4.115141	1.024221	0	-0.338231	0	0	0	-0	0.375827	-0
1.45	0	0	0	0	0	0	-8.936662	67.70575700000001	-4.742302	0.991763	0	-0.358841	0	0	0	-0	0.192984	-0
1.451	0	0	0	0	0	0	-8.876936000000001	75.091194	-5.372356	0.974743	0	-0.368988	0	0	0	-0	0.015626	-0
1.452	0	0	0	0	0	0	-8.715788	83.148071	-5.994776	0.964172	0	-0.374815	0	0	0	0	-0.154667	0
1.453	0	0	0	0	0	0	-8.449388000000001	91.911873	-6.598505	0.956913	0	-0.37846	0	0	0	0	-0.316466	0
1.454	0	0	0	0	0	0	-8.076406	101.416451	-7.172152	0.951584	0	-0.380861	0	0	0	0	-0.46851	0
1.455	0	0	0	0	0	0	-7.598331	111.693451	-7.70421	0.947484	0	-0.382493	0	0	0	0	-0.609715	0
1.456	0	0	0	0	0	0	-7.019705	122.771759	-8.183287	0.9442160000000001	0	-0.383622	0	0	0	0	-0.739178	0
1.457	0	0	0	0	0	0	-6.348299	134.67688	-8.598350999999999	0.94154	0	-0.384408	0	0	0	0	-0.856179	0
1.458	0	0	0	0	0	0	-5.595187	147.430435	-8.938986	0.939302	0	-0.384953	0	0	0	0	-0.960183	0
1.459	0	0	0	0	0	0	-4.774734	161.04953	-9.195634999999999	0.937397	0	-0.385324	0	0	0	0	-1.050832	0
1.46	0	0	0	0	0	0	-3.904482	175.546326	-9.35985	0.9357529999999999	0	-0.385568	0	0	0	0	-1.127943	0
1.461	0	0	0	0	0	0	-3.004945	190.927536	-9.424519	0.934318	0	-0.385717	0	0	0	0	-1.191495	0
1.462	0	0	0	0	0	0	-2.099316	207.194092	-9.384076	0.9330540000000001	0	-0.385796	0	0	0	0	-1.241623	0
1.463	0	0	0	0	0	0	-1.213103	224.34082	-9.234680000000001	0.931931	0	-0.385822	0	0	0	0	-1.278603	0
1.464	0	0	0	0	0	0	-0.373703	242.356216	-8.974364	0.930928	0	-0.385809	0	0	0	0	-1.302839	0
1.465	0	0	0	0	0	0	0.390065	261.222351	-8.603135	0.930026	0	-0.385765	0	0	0	0	-1.314853	0
1.466	0	0	0	0	0	0	1.048455	280.914734	-8.123034000000001	0.929211	0	-0.385701	0	0	0	0	-1.315263	0
1.467	0	0	0	0	0	0	1.571301	301.402466	-7.53814	0.928473	0	-0.385621	0	0	0	0	-1.304775	0
1.468	0	0	0	0	0	0	1.928513	322.648254	-6.854529	0.927802	0	-0.38553	0	0	0	0	-1.284167	0
1.469	0	0	0	0	0	0	2.090573	344.608612	-6.080163	0.92719	0	-0.385433	0	0	0	0	-1.254269	0
1.47	0	0	0	0	0	0	2.029	367.234161	-5.224734	0.926631	0	-0.385332	0	0	0	0	-1.215956	0
1.471	0	0	0	0	0	0	1.71679	390.469818	-4.299455	0.9261200000000001	0	-0.38523	0	0	0	0	-1.17013	0
1.472	0	0	0	0	0	0	1.128829	414.255188	-3.316793	0.925651	0	-0.385129	0	0	0	0	-1.117706	0
1.473	0	0	0	0	0	0	0.24227	438.525055	-2.290176	0.92522	0	-0.385031	0	0	0	0	-1.059605	0
1.474	0	0	0	0	0	0	-0.963118	463.209686	-1.233651	0.924824	0	-0.384936	0	0	0	0	-0.996739	0
1.475	0	0	0	0	0	0	-2.504641	488.235443	-0.161537	0.924459	0	-0.384847	0	0	0	0	-0.930001	0
1.476	0	0	0	0	0	0	-4.3964	513.525391	0.911938	0.924121	0	-0.384764	0	0	0	0	-0.860258	0
1.477	0	0	0	0	0	0	-6.649055	538.999817	1.972991	0.923809	0	-0.384688	0	0	0	0	-0.788342	0
1.478	0	0	0	0	0	0	-9.269626000000001	564.577148	3.008608	0.923518	0	-0.384619	0	0	0	0	-0.715044	0
1.479	0	0	0	0	0	0	-12.261328	590.174377	4.006841	0.923247	0	-0.384558	0	0	0	0	-0.641108	0
1.48	0	0	0	0	0	0	-15.623467	615.708374	4.957036	0.922992	0	-0.384506	0	0	0	0	-0.567226	0
1.481	0	0	0	0	0	0	-19.351372	641.096313	5.850019	0.922751	0	-0.384461	0	0	0	0	-0.494037	0
1.482	0	0	0	0	0	0	-23.436377	666.257019	6.678187	0.92252	0	-0.384426	0	0	0	0	-0.422123	0
1.483	0	0	0	0	0	0	-27.86585	691.111511	7.435544	0.922298	0	-0.3844	0	0	0	0	-0.352007	0
1.484	0	0	0	0	0	0	-32.623306	715.584412	8.117646000000001	0.922081	0	-0.384382	0	0	0	0	-0.284153	0
1.485	0	0	0	0	0	0	-37.688522	739.604675	8.721482999999999	0.921867	0	-0.384374	0	0	0	0	-0.218969	0
1.486	0	0	0	0	0	0	-43.037762	763.106812	9.245295	0.9216529999999999	0	-0.384375	0	0	0	0	-0.156803	0
1.487	0	0	0	0	0	0	-48.644028	786.031555	9.688342	0.921436	0	-0.384385	0	0	0	0	-0.097951	0
1.488	0	0	0	0	0	0	-54.477383	808.327087	10.050643	0.921212	0	-0.384404	0	0	0	0	-0.042653	0
1.489	0	0	0	0	0	0	-60.50531	829.9497679999999	10.332701	0.92098	0	-0.384431	0	0	0	-0	0.008900999999999999	-0
1.49	0	0	0	0	0	0	-66.693153	850.864929	10.535233	0.920736	0	-0.384467	0	0	0	-0	0.056567	-0
1.491	0	0	0	0	0	0	-73.004593	871.047729	10.658945	0.920477	0	-0.384511	0	0	0	-0	0.100247	-0
1.492	0	0	0	0	0	0	-79.402145	890.483398	10.704335	0.9202	0	-0.384563	0	0	0	-0	0.13988	-0
1.493	0	0	0	0	0	0	-85.847717	909.167908	10.671578	0.919902	0	-0.384623	0	0	0	-0	0.175445	-0
1.494	0	0	0	0	0	0	-92.30315400000001	927.108032	10.560487	0.919579	0	-0.384691	0	0	0	-0	0.206952	-0
